<?xml version="1.0" encoding="UTF-8"?>
<svg width="690px" height="48px" viewBox="0 0 690 48" version="1.1" xmlns="http://www.w3.org/2000/svg" xmlns:xlink="http://www.w3.org/1999/xlink">
    <!-- Generator: Sketch 50.2 (55047) - http://www.bohemiancoding.com/sketch -->
    <title>Logotype</title>
    <desc>Created with Sketch.</desc>
    <defs></defs>
    <g id="Page-1" stroke="none" stroke-width="1" fill="none" fill-rule="evenodd">
        <g id="Artboard-2" transform="translate(-176.000000, -191.000000)" fill="#FFFFFF">
            <path d="M222.66,215.58 C222.66,218.940017 222.080006,222.009986 220.92,224.79 C219.759994,227.570014 218.15001,229.94999 216.09,231.93 C214.02999,233.91001 211.580014,235.439995 208.74,236.52 C205.899986,237.600005 202.820017,238.14 199.5,238.14 C196.179983,238.14 193.110014,237.600005 190.29,236.52 C187.469986,235.439995 185.03001,233.91001 182.97,231.93 C180.90999,229.94999 179.300006,227.570014 178.14,224.79 C176.979994,222.009986 176.4,218.940017 176.4,215.58 C176.4,212.179983 176.979994,209.110014 178.14,206.37 C179.300006,203.629986 180.90999,201.30001 182.97,199.38 C185.03001,197.45999 187.469986,195.980005 190.29,194.94 C193.110014,193.899995 196.179983,193.38 199.5,193.38 C202.820017,193.38 205.899986,193.899995 208.74,194.94 C211.580014,195.980005 214.02999,197.45999 216.09,199.38 C218.15001,201.30001 219.759994,203.629986 220.92,206.37 C222.080006,209.110014 222.66,212.179983 222.66,215.58 Z M211.68,215.58 C211.68,213.739991 211.380003,212.020008 210.78,210.42 C210.179997,208.819992 209.350005,207.450006 208.29,206.31 C207.229995,205.169994 205.950007,204.270003 204.45,203.61 C202.949993,202.949997 201.300009,202.62 199.5,202.62 C197.699991,202.62 196.060007,202.949997 194.58,203.61 C193.099993,204.270003 191.820005,205.169994 190.74,206.31 C189.659995,207.450006 188.830003,208.819992 188.25,210.42 C187.669997,212.020008 187.38,213.739991 187.38,215.58 C187.38,217.50001 187.679997,219.269992 188.28,220.89 C188.880003,222.510008 189.709995,223.899994 190.77,225.06 C191.830005,226.220006 193.099993,227.129997 194.58,227.79 C196.060007,228.450003 197.699991,228.78 199.5,228.78 C201.300009,228.78 202.939993,228.450003 204.42,227.79 C205.900007,227.129997 207.179995,226.220006 208.26,225.06 C209.340005,223.899994 210.179997,222.510008 210.78,220.89 C211.380003,219.269992 211.68,217.50001 211.68,215.58 Z M264,237 L251.82,237 L242.04,222.66 L241.86,222.66 L241.86,237 L231.96,237 L231.96,191.64 L241.86,191.64 L241.86,219.24 L242.04,219.24 L251.58,207.12 L263.52,207.12 L252,220.62 L264,237 Z M281.28,197.58 C281.28,198.340004 281.130001,199.049997 280.83,199.71 C280.529998,200.370003 280.130002,200.939998 279.63,201.42 C279.129998,201.900002 278.530004,202.279999 277.83,202.56 C277.129997,202.840001 276.400004,202.98 275.64,202.98 C274.039992,202.98 272.700005,202.450005 271.62,201.39 C270.539995,200.329995 270,199.060007 270,197.58 C270,196.859996 270.139999,196.170003 270.42,195.51 C270.700001,194.849997 271.099997,194.280002 271.62,193.8 C272.140003,193.319998 272.739997,192.930002 273.42,192.63 C274.100003,192.329998 274.839996,192.18 275.64,192.18 C276.400004,192.18 277.129997,192.319999 277.83,192.6 C278.530004,192.880001 279.129998,193.259998 279.63,193.74 C280.130002,194.220002 280.529998,194.789997 280.83,195.45 C281.130001,196.110003 281.28,196.819996 281.28,197.58 Z M270.72,237 L270.72,207.12 L280.56,207.12 L280.56,237 L270.72,237 Z M329.52,237 L329.52,220.68 C329.52,219.839996 329.460001,219.030004 329.34,218.25 C329.219999,217.469996 329.000002,216.800003 328.68,216.24 C328.359998,215.679997 327.930003,215.230002 327.39,214.89 C326.849997,214.549998 326.140004,214.38 325.26,214.38 C324.419996,214.38 323.690003,214.559998 323.07,214.92 C322.449997,215.280002 321.930002,215.759997 321.51,216.36 C321.089998,216.960003 320.780001,217.649996 320.58,218.43 C320.379999,219.210004 320.28,220.019996 320.28,220.86 L320.28,237 L310.44,237 L310.44,219.96 C310.44,218.239991 310.100003,216.880005 309.42,215.88 C308.739997,214.879995 307.660007,214.38 306.18,214.38 C304.619992,214.38 303.410004,214.999994 302.55,216.24 C301.689996,217.480006 301.26,218.999991 301.26,220.8 L301.26,237 L291.36,237 L291.36,207.12 L300.9,207.12 L300.9,211.26 L301.02,211.26 C301.380002,210.619997 301.829997,210.000003 302.37,209.4 C302.910003,208.799997 303.559996,208.270002 304.32,207.81 C305.080004,207.349998 305.929995,206.980001 306.87,206.7 C307.810005,206.419999 308.839994,206.28 309.96,206.28 C312.120011,206.28 313.949993,206.719996 315.45,207.6 C316.950007,208.480004 318.119996,209.739992 318.96,211.38 C319.960005,209.819992 321.239992,208.580005 322.8,207.66 C324.360008,206.739995 326.259989,206.28 328.5,206.28 C330.54001,206.28 332.249993,206.649996 333.63,207.39 C335.010007,208.130004 336.119996,209.089994 336.96,210.27 C337.800004,211.450006 338.409998,212.769993 338.79,214.23 C339.170002,215.690007 339.36,217.119993 339.36,218.52 L339.36,237 L329.52,237 Z M381.48,221.94 C381.48,224.380012 381.040004,226.58999 380.16,228.57 C379.279996,230.55001 378.080008,232.229993 376.56,233.61 C375.039992,234.990007 373.28001,236.059996 371.28,236.82 C369.27999,237.580004 367.140011,237.96 364.86,237.96 C362.619989,237.96 360.49001,237.580004 358.47,236.82 C356.44999,236.059996 354.690007,234.990007 353.19,233.61 C351.689992,232.229993 350.500004,230.55001 349.62,228.57 C348.739996,226.58999 348.3,224.380012 348.3,221.94 C348.3,219.499988 348.739996,217.30001 349.62,215.34 C350.500004,213.37999 351.689992,211.720007 353.19,210.36 C354.690007,208.999993 356.44999,207.960004 358.47,207.24 C360.49001,206.519996 362.619989,206.16 364.86,206.16 C367.140011,206.16 369.27999,206.519996 371.28,207.24 C373.28001,207.960004 375.039992,208.999993 376.56,210.36 C378.080008,211.720007 379.279996,213.37999 380.16,215.34 C381.040004,217.30001 381.48,219.499988 381.48,221.94 Z M372,221.94 C372,220.979995 371.840002,220.040005 371.52,219.12 C371.199998,218.199995 370.740003,217.390004 370.14,216.69 C369.539997,215.989996 368.800004,215.420002 367.92,214.98 C367.039996,214.539998 366.020006,214.32 364.86,214.32 C363.699994,214.32 362.680004,214.539998 361.8,214.98 C360.919996,215.420002 360.190003,215.989996 359.61,216.69 C359.029997,217.390004 358.590001,218.199995 358.29,219.12 C357.989998,220.040005 357.84,220.979995 357.84,221.94 C357.84,222.900005 357.989998,223.839995 358.29,224.76 C358.590001,225.680005 359.039997,226.509996 359.64,227.25 C360.240003,227.990004 360.979996,228.579998 361.86,229.02 C362.740004,229.460002 363.759994,229.68 364.92,229.68 C366.080006,229.68 367.099996,229.460002 367.98,229.02 C368.860004,228.579998 369.599997,227.990004 370.2,227.25 C370.800003,226.509996 371.249998,225.680005 371.55,224.76 C371.850001,223.839995 372,222.900005 372,221.94 Z M401.4,214.5 L401.4,225.9 C401.4,227.300007 401.669997,228.349997 402.21,229.05 C402.750003,229.750003 403.719993,230.1 405.12,230.1 C405.600002,230.1 406.109997,230.06 406.65,229.98 C407.190003,229.9 407.639998,229.780001 408,229.62 L408.12,236.82 C407.439997,237.060001 406.580005,237.269999 405.54,237.45 C404.499995,237.630001 403.460005,237.72 402.42,237.72 C400.41999,237.72 398.740007,237.470002 397.38,236.97 C396.019993,236.469998 394.930004,235.750005 394.11,234.81 C393.289996,233.869995 392.700002,232.750006 392.34,231.45 C391.979998,230.149993 391.8,228.700008 391.8,227.1 L391.8,214.5 L387,214.5 L387,207.12 L391.74,207.12 L391.74,199.26 L401.4,199.26 L401.4,207.12 L408.42,207.12 L408.42,214.5 L401.4,214.5 Z M426.72,197.58 C426.72,198.340004 426.570001,199.049997 426.27,199.71 C425.969998,200.370003 425.570002,200.939998 425.07,201.42 C424.569997,201.900002 423.970003,202.279999 423.27,202.56 C422.569997,202.840001 421.840004,202.98 421.08,202.98 C419.479992,202.98 418.140005,202.450005 417.06,201.39 C415.979995,200.329995 415.44,199.060007 415.44,197.58 C415.44,196.859996 415.579999,196.170003 415.86,195.51 C416.140001,194.849997 416.539997,194.280002 417.06,193.8 C417.580003,193.319998 418.179997,192.930002 418.86,192.63 C419.540003,192.329998 420.279996,192.18 421.08,192.18 C421.840004,192.18 422.569997,192.319999 423.27,192.6 C423.970003,192.880001 424.569997,193.259998 425.07,193.74 C425.570002,194.220002 425.969998,194.789997 426.27,195.45 C426.570001,196.110003 426.72,196.819996 426.72,197.58 Z M416.16,237 L416.16,207.12 L426,207.12 L426,237 L416.16,237 Z M475.32,237 L465.06,237 L448.98,194.52 L460.5,194.52 L470.34,224.64 L470.58,224.64 L480.36,194.52 L491.7,194.52 L475.32,237 Z M526.8,221.94 C526.8,224.380012 526.360004,226.58999 525.48,228.57 C524.599996,230.55001 523.400008,232.229993 521.88,233.61 C520.359992,234.990007 518.60001,236.059996 516.6,236.82 C514.59999,237.580004 512.460011,237.96 510.18,237.96 C507.939989,237.96 505.81001,237.580004 503.79,236.82 C501.76999,236.059996 500.010008,234.990007 498.51,233.61 C497.009992,232.229993 495.820004,230.55001 494.94,228.57 C494.059996,226.58999 493.62,224.380012 493.62,221.94 C493.62,219.499988 494.059996,217.30001 494.94,215.34 C495.820004,213.37999 497.009992,211.720007 498.51,210.36 C500.010008,208.999993 501.76999,207.960004 503.79,207.24 C505.81001,206.519996 507.939989,206.16 510.18,206.16 C512.460011,206.16 514.59999,206.519996 516.6,207.24 C518.60001,207.960004 520.359992,208.999993 521.88,210.36 C523.400008,211.720007 524.599996,213.37999 525.48,215.34 C526.360004,217.30001 526.8,219.499988 526.8,221.94 Z M517.32,221.94 C517.32,220.979995 517.160002,220.040005 516.84,219.12 C516.519998,218.199995 516.060003,217.390004 515.46,216.69 C514.859997,215.989996 514.120004,215.420002 513.24,214.98 C512.359996,214.539998 511.340006,214.32 510.18,214.32 C509.019994,214.32 508.000004,214.539998 507.12,214.98 C506.239996,215.420002 505.510003,215.989996 504.93,216.69 C504.349997,217.390004 503.910001,218.199995 503.61,219.12 C503.309998,220.040005 503.16,220.979995 503.16,221.94 C503.16,222.900005 503.309998,223.839995 503.61,224.76 C503.910001,225.680005 504.359997,226.509996 504.96,227.25 C505.560003,227.990004 506.299996,228.579998 507.18,229.02 C508.060004,229.460002 509.079994,229.68 510.24,229.68 C511.400006,229.68 512.419996,229.460002 513.3,229.02 C514.180004,228.579998 514.919997,227.990004 515.52,227.25 C516.120003,226.509996 516.569998,225.680005 516.87,224.76 C517.170001,223.839995 517.32,222.900005 517.32,221.94 Z M546.72,197.58 C546.72,198.340004 546.570001,199.049997 546.27,199.71 C545.969998,200.370003 545.570002,200.939998 545.07,201.42 C544.569997,201.900002 543.970003,202.279999 543.27,202.56 C542.569996,202.840001 541.840004,202.98 541.08,202.98 C539.479992,202.98 538.140005,202.450005 537.06,201.39 C535.979995,200.329995 535.44,199.060007 535.44,197.58 C535.44,196.859996 535.579999,196.170003 535.86,195.51 C536.140001,194.849997 536.539997,194.280002 537.06,193.8 C537.580003,193.319998 538.179997,192.930002 538.86,192.63 C539.540003,192.329998 540.279996,192.18 541.08,192.18 C541.840004,192.18 542.569996,192.319999 543.27,192.6 C543.970003,192.880001 544.569997,193.259998 545.07,193.74 C545.570002,194.220002 545.969998,194.789997 546.27,195.45 C546.570001,196.110003 546.72,196.819996 546.72,197.58 Z M536.16,237 L536.16,207.12 L546,207.12 L546,237 L536.16,237 Z M579.42,237 L579.42,233.1 L579.3,233.1 C578.339995,234.620008 576.970009,235.789996 575.19,236.61 C573.409991,237.430004 571.52001,237.84 569.52,237.84 C567.279989,237.84 565.280009,237.400004 563.52,236.52 C561.759991,235.639996 560.270006,234.470007 559.05,233.01 C557.829994,231.549993 556.900003,229.86001 556.26,227.94 C555.619997,226.01999 555.3,224.02001 555.3,221.94 C555.3,219.85999 555.629997,217.87001 556.29,215.97 C556.950003,214.069991 557.889994,212.400007 559.11,210.96 C560.330006,209.519993 561.809991,208.380004 563.55,207.54 C565.290009,206.699996 567.239989,206.28 569.4,206.28 C571.600011,206.28 573.459992,206.699996 574.98,207.54 C576.500008,208.380004 577.679996,209.299995 578.52,210.3 L578.64,210.3 L578.64,191.64 L588.48,191.64 L588.48,237 L579.42,237 Z M579.06,222 C579.06,221.039995 578.890002,220.100005 578.55,219.18 C578.209998,218.259995 577.730003,217.440004 577.11,216.72 C576.489997,215.999996 575.740004,215.420002 574.86,214.98 C573.979996,214.539998 572.980006,214.32 571.86,214.32 C570.699994,214.32 569.680004,214.539998 568.8,214.98 C567.919996,215.420002 567.180003,215.989996 566.58,216.69 C565.979997,217.390004 565.530002,218.199995 565.23,219.12 C564.929999,220.040005 564.78,220.979995 564.78,221.94 C564.78,222.900005 564.929999,223.849995 565.23,224.79 C565.530002,225.730005 565.979997,226.559996 566.58,227.28 C567.180003,228.000004 567.919996,228.579998 568.8,229.02 C569.680004,229.460002 570.699994,229.68 571.86,229.68 C572.980006,229.68 573.979996,229.460002 574.86,229.02 C575.740004,228.579998 576.489997,228.000004 577.11,227.28 C577.730003,226.559996 578.209998,225.740005 578.55,224.82 C578.890002,223.899995 579.06,222.960005 579.06,222 Z M645.54,237 L642.24,228.66 L625.8,228.66 L622.68,237 L611.52,237 L629.34,194.52 L639.3,194.52 L656.94,237 L645.54,237 Z M634.14,205.86 L628.74,220.44 L639.42,220.44 L634.14,205.86 Z M663.06,237 L663.06,191.64 L673.02,191.64 L673.02,237 L663.06,237 Z M683.94,237 L683.94,191.64 L693.9,191.64 L693.9,237 L683.94,237 Z M715.38,197.58 C715.38,198.340004 715.230002,199.049997 714.93,199.71 C714.629999,200.370003 714.230003,200.939998 713.73,201.42 C713.229998,201.900002 712.630004,202.279999 711.93,202.56 C711.229996,202.840001 710.500004,202.98 709.74,202.98 C708.139992,202.98 706.800005,202.450005 705.72,201.39 C704.639995,200.329995 704.1,199.060007 704.1,197.58 C704.1,196.859996 704.239999,196.170003 704.52,195.51 C704.800001,194.849997 705.199997,194.280002 705.72,193.8 C706.240003,193.319998 706.839997,192.930002 707.52,192.63 C708.200003,192.329998 708.939996,192.18 709.74,192.18 C710.500004,192.18 711.229996,192.319999 711.93,192.6 C712.630004,192.880001 713.229998,193.259998 713.73,193.74 C714.230003,194.220002 714.629999,194.789997 714.93,195.45 C715.230002,196.110003 715.38,196.819996 715.38,197.58 Z M704.82,237 L704.82,207.12 L714.66,207.12 L714.66,237 L704.82,237 Z M743.1,223.98 L741.84,223.98 C740.759995,223.98 739.670006,224.03 738.57,224.13 C737.469994,224.230001 736.490004,224.419999 735.63,224.7 C734.769996,224.980001 734.060003,225.389997 733.5,225.93 C732.939997,226.470003 732.66,227.179996 732.66,228.06 C732.66,228.620003 732.789999,229.099998 733.05,229.5 C733.310001,229.900002 733.639998,230.219999 734.04,230.46 C734.440002,230.700001 734.899997,230.87 735.42,230.97 C735.940003,231.07 736.439998,231.12 736.92,231.12 C738.92001,231.12 740.449995,230.570006 741.51,229.47 C742.570005,228.369994 743.1,226.880009 743.1,225 L743.1,223.98 Z M725.04,211.2 C726.800009,209.519992 728.849988,208.260004 731.19,207.42 C733.530012,206.579996 735.919988,206.16 738.36,206.16 C740.880013,206.16 743.009991,206.469997 744.75,207.09 C746.490009,207.710003 747.899995,208.669994 748.98,209.97 C750.060005,211.270006 750.849997,212.90999 751.35,214.89 C751.850003,216.87001 752.1,219.219986 752.1,221.94 L752.1,237 L743.1,237 L743.1,233.82 L742.92,233.82 C742.159996,235.060006 741.010008,236.019997 739.47,236.7 C737.929992,237.380003 736.260009,237.72 734.46,237.72 C733.259994,237.72 732.020006,237.560002 730.74,237.24 C729.459994,236.919998 728.290005,236.400004 727.23,235.68 C726.169995,234.959996 725.300003,234.000006 724.62,232.8 C723.939997,231.599994 723.6,230.120009 723.6,228.36 C723.6,226.199989 724.189994,224.460007 725.37,223.14 C726.550006,221.819993 728.069991,220.800004 729.93,220.08 C731.790009,219.359996 733.859989,218.880001 736.14,218.64 C738.420011,218.399999 740.639989,218.28 742.8,218.28 L742.8,217.8 C742.8,216.319993 742.280005,215.230004 741.24,214.53 C740.199995,213.829996 738.920008,213.48 737.4,213.48 C735.999993,213.48 734.650007,213.779997 733.35,214.38 C732.049994,214.980003 730.940005,215.699996 730.02,216.54 L725.04,211.2 Z M782.04,237 L782.04,220.68 C782.04,219.839996 781.970001,219.040004 781.83,218.28 C781.689999,217.519996 781.460002,216.850003 781.14,216.27 C780.819998,215.689997 780.370003,215.230002 779.79,214.89 C779.209997,214.549998 778.480004,214.38 777.6,214.38 C776.719996,214.38 775.950003,214.549998 775.29,214.89 C774.629997,215.230002 774.080002,215.699997 773.64,216.3 C773.199998,216.900003 772.870001,217.589996 772.65,218.37 C772.429999,219.150004 772.32,219.959996 772.32,220.8 L772.32,237 L762.42,237 L762.42,207.12 L771.96,207.12 L771.96,211.26 L772.08,211.26 C772.440002,210.619997 772.909997,209.990003 773.49,209.37 C774.070003,208.749997 774.749996,208.220002 775.53,207.78 C776.310004,207.339998 777.159995,206.980001 778.08,206.7 C779.000005,206.419999 779.979995,206.28 781.02,206.28 C783.02001,206.28 784.719993,206.639996 786.12,207.36 C787.520007,208.080004 788.649996,209.009994 789.51,210.15 C790.370004,211.290006 790.989998,212.599993 791.37,214.08 C791.750002,215.560007 791.94,217.039993 791.94,218.52 L791.94,237 L782.04,237 Z M822.96,216.78 C822.399997,216.059996 821.640005,215.480002 820.68,215.04 C819.719995,214.599998 818.740005,214.38 817.74,214.38 C816.699995,214.38 815.760004,214.589998 814.92,215.01 C814.079996,215.430002 813.360003,215.989996 812.76,216.69 C812.159997,217.390004 811.690002,218.199995 811.35,219.12 C811.009998,220.040005 810.84,221.019995 810.84,222.06 C810.84,223.100005 810.999998,224.079995 811.32,225 C811.640002,225.920005 812.109997,226.729996 812.73,227.43 C813.350003,228.130003 814.089996,228.679998 814.95,229.08 C815.810004,229.480002 816.779995,229.68 817.86,229.68 C818.860005,229.68 819.849995,229.490002 820.83,229.11 C821.810005,228.729998 822.599997,228.180004 823.2,227.46 L828.66,234.12 C827.419994,235.320006 825.82001,236.259997 823.86,236.94 C821.89999,237.620003 819.820011,237.96 817.62,237.96 C815.259988,237.96 813.06001,237.600004 811.02,236.88 C808.97999,236.159996 807.210008,235.110007 805.71,233.73 C804.209992,232.349993 803.030004,230.68001 802.17,228.72 C801.309996,226.75999 800.88,224.540012 800.88,222.06 C800.88,219.619988 801.309996,217.42001 802.17,215.46 C803.030004,213.49999 804.209992,211.830007 805.71,210.45 C807.210008,209.069993 808.97999,208.010004 811.02,207.27 C813.06001,206.529996 815.239988,206.16 817.56,206.16 C818.640005,206.16 819.709995,206.259999 820.77,206.46 C821.830005,206.660001 822.849995,206.929998 823.83,207.27 C824.810005,207.610002 825.709996,208.029998 826.53,208.53 C827.350004,209.030002 828.059997,209.579997 828.66,210.18 L822.96,216.78 Z M856.14,218.64 C856.14,217.079992 855.650005,215.740006 854.67,214.62 C853.689995,213.499994 852.22001,212.94 850.26,212.94 C849.299995,212.94 848.420004,213.089999 847.62,213.39 C846.819996,213.690001 846.120003,214.099997 845.52,214.62 C844.919997,215.140003 844.440002,215.749997 844.08,216.45 C843.719998,217.150003 843.52,217.879996 843.48,218.64 L856.14,218.64 Z M865.2,222.42 L865.2,223.62 C865.2,224.020002 865.18,224.399998 865.14,224.76 L843.48,224.76 C843.56,225.600004 843.809998,226.359997 844.23,227.04 C844.650002,227.720003 845.189997,228.309998 845.85,228.81 C846.510003,229.310002 847.249996,229.699999 848.07,229.98 C848.890004,230.260001 849.739996,230.4 850.62,230.4 C852.180008,230.4 853.499995,230.110003 854.58,229.53 C855.660005,228.949997 856.539997,228.200005 857.22,227.28 L864.06,231.6 C862.659993,233.64001 860.810012,235.209994 858.51,236.31 C856.209989,237.410006 853.540015,237.96 850.5,237.96 C848.259989,237.96 846.14001,237.610004 844.14,236.91 C842.13999,236.209996 840.390007,235.190007 838.89,233.85 C837.389993,232.509993 836.210004,230.86001 835.35,228.9 C834.489996,226.93999 834.06,224.700013 834.06,222.18 C834.06,219.739988 834.479996,217.53001 835.32,215.55 C836.160004,213.56999 837.299993,211.890007 838.74,210.51 C840.180007,209.129993 841.87999,208.060004 843.84,207.3 C845.80001,206.539996 847.919989,206.16 850.2,206.16 C852.400011,206.16 854.419991,206.529996 856.26,207.27 C858.100009,208.010004 859.679993,209.079993 861,210.48 C862.320007,211.880007 863.349996,213.57999 864.09,215.58 C864.830004,217.58001 865.2,219.859987 865.2,222.42 Z" id="Logotype"></path>
        </g>
    </g>
</svg>