<?xml version="1.0" encoding="UTF-8"?>
<svg width="1024px" height="1024px" viewBox="0 0 1024 1024" version="1.1" xmlns="http://www.w3.org/2000/svg" xmlns:xlink="http://www.w3.org/1999/xlink">
    <!-- Generator: Sketch 50.2 (55047) - http://www.bohemiancoding.com/sketch -->
    <title>Artboard</title>
    <desc>Created with Sketch.</desc>
    <defs></defs>
    <g id="Artboard" stroke="none" stroke-width="1" fill="none" fill-rule="evenodd">
        <rect id="Rectangle-3" x="0" y="0" width="1024" height="1024"></rect>
        <path d="M609.837835,702.460789 L609.699931,706.228223 C620.231747,705.913024 630.725066,704.929963 641.098432,703.280499 L608.618937,735.75999 L601.771457,922.827096 C601.358528,934.108008 592.093628,943.039978 580.805158,943.039978 C569.634416,943.039978 560.578738,933.984303 560.578738,922.813558 L560.578738,783.800192 L513.309566,831.069364 L458.100305,775.860102 L503.861367,686.10166 C506.512714,687.247372 509.182244,688.34565 511.868663,689.395526 C527.667709,695.565417 544.01245,700.046789 560.578738,702.845442 L560.578738,695.976752 C545.044672,692.300155 529.902031,687.104702 515.446882,680.438718 C513.09993,679.357154 510.771141,678.236886 508.461411,677.078867 L527.399763,639.932071 C540.28261,645.485751 554.02889,649.104864 568.086529,650.49835 C579.337074,651.611029 590.752228,651.328978 602.011865,649.640922 L599.940154,637.580895 C589.748057,639.735788 579.25457,640.631295 568.776877,640.221835 C555.991692,639.726173 543.212728,637.219334 530.995929,632.87834 L546.96814,601.549506 C560.789743,608.830582 576.468351,613.540068 594.10258,614.978747 C609.933914,616.270335 625.396955,613.862275 639.873654,608.478228 L664.268696,680.110231 L643.211256,701.16767 C632.112035,702.364269 620.954629,702.789934 609.837835,702.460789 Z M331.345974,651.72161 L331.345974,676.000141 C331.345974,687.170883 322.290295,696.226561 311.119554,696.226561 C299.948812,696.226561 290.893133,687.170883 290.893133,676.000141 L290.893133,611.26877 L148.410841,468.786479 C73.1963863,393.572023 73.1963863,271.625297 148.410841,196.410843 C223.625296,121.196388 345.572021,121.196388 420.786477,196.410843 L512.001645,287.626013 L539.356126,260.271533 C577.812912,246.688571 619.662822,243.799241 658.988218,251.824585 L640.64028,293.126662 C611.018606,289.856954 580.521577,292.252156 552.72495,299.77898 L544.174153,280.542529 L547.940967,301.133038 C539.482662,303.632144 531.299878,306.614749 523.496967,310.065285 C531.441369,306.967073 539.69028,304.353172 548.140989,302.226411 L554.859475,338.951634 C537.742297,344.583879 521.98965,353.528174 508.660871,365.015655 L400.435573,287.996099 L481.90104,397.018177 C476.024598,407.096645 471.61272,418.039091 468.982928,429.615063 L348.201324,437.394697 L466.904609,467.411884 C467.175637,469.846407 467.524947,472.295486 467.954822,474.757551 C469.76474,485.123699 472.175864,495.363826 475.212254,505.307347 L403.947476,577.329308 C403.170421,575.953979 402.40684,574.571217 401.656942,573.181237 C392.156788,555.584733 384.765902,536.850241 379.677632,517.559845 L358.314534,524.278465 C365.06225,544.999829 374.228031,564.790603 385.523584,583.112089 C387.144903,585.7406 388.810498,588.337092 390.518946,590.900515 L381.900593,599.610436 L392.257522,593.476124 C416.163074,628.44514 448.093533,657.083526 484.343731,676.637789 L455.075639,772.835436 L394.764351,712.524151 C387.708853,707.193074 380.936579,701.312215 374.505909,694.881545 L331.345974,651.72161 Z M553.268266,301.00126 C580.973557,294.729364 610.590541,293.60522 638.597077,297.726006 L622.808731,333.266321 C613.958631,332.361681 604.407004,331.995373 594.10258,332.211364 C585.397388,332.393834 576.822525,333.42977 568.487571,335.239641 L553.268266,301.00126 Z M659.311268,295.972429 L672.664511,255.086301 C675.218862,255.785431 677.759169,256.532338 680.283723,257.327085 C735.466633,274.668264 782.956046,314.781314 809.598837,365.414004 C819.464148,384.135832 826.630662,404.250363 830.8353,424.881227 L852.560391,419.654741 C846.730496,397.166208 837.730723,375.640334 825.957632,355.899945 C793.991568,302.355452 741.313831,263.097208 682.822718,248.100642 C680.394412,247.479304 677.957597,246.90015 675.513531,246.362925 L709.492413,142.323411 C768.207133,133.142212 830.352964,151.171355 875.592451,196.410843 C950.806907,271.625297 950.806907,393.572023 875.592451,468.786479 L782.322592,562.056335 L724.766213,508.925486 C727.607509,497.525643 729.132241,485.667584 729.132241,473.595061 L729.13013,472.804808 C729.120142,470.93378 729.096682,469.07006 729.058859,467.214414 L848.269076,453.052815 L724.480686,422.337084 C721.390329,407.399303 716.536999,393.631641 709.277241,381.5859 L740.51035,344.776745 C746.560875,350.536987 751.930332,356.668083 756.508407,363.094138 C764.181438,373.849237 769.755378,385.404382 773.025659,397.256161 L789.922959,394.253704 C785.3886,381.334766 778.388769,368.968852 769.231908,357.628616 C744.625914,327.186353 704.241486,304.782586 659.311268,295.972429 Z M657.54415,301.383145 C689.086939,308.971895 717.304939,323.628377 738.093984,342.528875 L696.366131,364.73682 C684.142071,352.121713 667.713636,342.586055 645.851812,337.183834 L657.544156,301.383124 L657.54415,301.383145 Z M407.962963,584.173939 L451.51169,558.380436 C458.984274,579.514223 471.54006,598.953516 488.043841,614.312751 C491.907792,617.90698 495.982664,621.272622 500.238859,624.394068 L487.768118,665.382602 C455.414351,644.931682 427.843684,616.835839 407.962963,584.173939 Z M452.571426,557.752763 L487.620384,536.993592 C494.881029,551.807436 503.877447,565.328946 514.71417,576.81697 L502.066512,618.386983 C498.363189,615.919764 494.777975,613.257826 491.332664,610.408105 C474.588353,596.565521 461.15593,578.2916 452.571426,557.752763 Z M662.505141,243.907825 C622.012407,237.504449 580.15913,242.288207 542.487661,257.139997 L603.216817,196.410843 C632.676845,166.950815 669.306238,149.029702 707.488794,142.647506 L662.505141,243.907825 Z M706.149182,552.670194 L758.937772,585.441155 L666.983476,677.395454 L660.071984,598.686655 C678.354635,587.636355 694.239188,571.682247 706.149182,552.670194 Z" id="Combined-Shape" fill="#E7554D" fill-rule="nonzero" transform="translate(512.001646, 541.519989) rotate(-360.000000) translate(-512.001646, -541.519989) "></path>
    </g>
</svg>
